<svg xmlns="http://www.w3.org/2000/svg" width="195.175" height="40.68" viewBox="0 0 390.35 81.36">
  <path fill="#ffb800" d="M0 0v18.58l16.46 9.5 16.52-9.5V0L16.46 9.53 0 0z" transform="translate(18.6, 30.6)"></path>
  <path d="M14.32 28.58L49.5 8.26 35.19 0 0 20.37v19.14l14.32 8.26V28.58z" fill="#1c1c1c"></path>
  <path d="M35.21 64.84L0 44.52v16.52l35.24 20.32 16.52-9.53V55.31l-16.52 9.53h-.03z" fill="#1c1c1c"></path>
  <path d="M39.59 19l16.58 9.55-.06 40.69 14.32-8.26V20.37l-16.58-9.63L39.59 19zm86.2 2.03c-.05-.02-.11-.02-.16-.02v.03h-6.06a.53.53 0 00-.47.28l-12.11 24.23a.16.16 0 01-.28 0L94.76 21.49a.814.814 0 00-.72-.47H88.2c-.47 0-.66.33-.47.74l18.5 38.1c.28.61 1.16.61 1.43 0l18.5-38.1a.575.575 0 00-.39-.72zm174.58.44c-.28-.61-1.16-.61-1.43 0l-18.5 38.1c-.17.36.08.74.47.74h6.06c.19 0 .39-.11.47-.28l4.35-9.44c.08-.19.28-.28.47-.28h14.81c.19 0 .39.11.47.28l4.35 9.44c.08.19.28.28.47.28h6.06c.29 0 .52-.24.52-.53 0-.07-.02-.15-.05-.21l-18.5-38.1zm3.72 22.22h-8.92c-.11 0-.19-.11-.14-.22l4.46-9.64a.16.16 0 01.28 0l4.46 9.64c.06.11 0 .22-.14.22zm50.08 10v-.06h-22.8a.28.28 0 01-.28-.28V21.92c0-.28-.28-.55-.55-.55h-5.59c-.3 0-.55.25-.55.55v37.55c0 .28.28.55.55.55h29.13c.28 0 .55-.22.55-.5l.08-5.29c-.03-.33-.28-.55-.55-.55zm-94.1-32.24l-.03-.08h-12.11c-.3 0-.55.25-.55.55v37.55c0 .28.28.55.55.55h12.61c11.23 0 20.32-9.09 19.91-20.02-.41-10.46-9.64-18.56-20.37-18.56zm.44 32.13l-.06.06h-6.33a.28.28 0 01-.28-.28V27.92c0-.15.12-.28.28-.28h5.95c6.97 0 13.08 5.01 13.77 11.73.77 7.71-5.51 14.21-13.33 14.21zm-69.08-7.24v-.03c-.06-.08-.03-.19.06-.22a12.87 12.87 0 008.12-11.92c0-7.08-5.78-12.83-12.89-12.83h-15.97c-.29 0-.52.23-.52.52v37.61c0 .29.23.52.52.52h5.31c.29 0 .52-.23.52-.52V46.81c0-.08.06-.17.17-.17h6.39c.17 0 .33.08.41.22l9.58 12.89c.1.13.25.22.41.22h6.47c.41 0 .66-.47.41-.83l-9-12.8zm-4.96-5.56v-.06h-9.77c-.08 0-.17-.08-.17-.17V27.8c0-.08.06-.17.17-.17h9.99c3.91 0 7.05 3.41 6.53 7.43-.41 3.3-3.39 5.7-6.75 5.7zm-25.02 12.96l-.03-.14h-22.91c-.08 0-.17-.06-.17-.17V43.9c0-.08.08-.17.17-.17h17.4c.28 0 .55-.22.55-.5l.08-5.29c0-.28-.28-.55-.55-.55h-17.48c-.08 0-.17-.06-.17-.17v-9.44c0-.08.08-.17.17-.17h22.85c.28 0 .55-.22.55-.5l.06-5.23c0-.28-.28-.55-.55-.55h-29.18c-.3 0-.55.25-.55.55v37.59c0 .28.28.55.55.55h29.13c.28 0 .55-.22.55-.5l.08-5.29c-.06-.28-.28-.5-.55-.5zm228.32-.05h-22.19c-.08 0-.17-.06-.17-.17v-9.55c0-.08.08-.17.17-.17h16.85c.28 0 .55-.22.55-.5l.08-5.29c0-.29-.23-.52-.52-.52h-16.93c-.08 0-.17-.06-.17-.17v-9.53c0-.08.08-.17.17-.17h22.14c.28 0 .55-.22.55-.5l.06-5.29c0-.29-.23-.52-.52-.52h-28.36c-.29 0-.52.23-.52.52v37.64c0 .29.23.52.52.52h28.22c.28 0 .55-.22.55-.5l.08-5.31a.569.569 0 00-.55-.5zm-151.2-32.71h-5.29l.03-.06c-.27 0-.5.22-.5.5v22.63c0 .14-.17.19-.28.11l-22.41-23.24c-.47-.55-1.32-.19-1.32.5v37.44c0 .27.22.5.5.5h5.23c.27 0 .5-.22.5-.5V36.48c0-.14.17-.19.28-.11l22.44 23.95c.47.55 1.32.19 1.32-.5V21.47c0-.27-.22-.5-.5-.5z" fill="#1c1c1c"></path>
</svg>
